<svg width="32" height="32" viewBox="0 0 32 32" fill="none" xmlns="http://www.w3.org/2000/svg">
<path d="M15.6943 5.68555L6.90234 10.8037L6.83984 10.8398V16.2803L7.02637 16.1748L15.6943 11.2578V15.9951L3.125 23.5107V8.47266L15.6943 1.21582V5.68555Z" fill="url(#paint0_linear_1198_14184)" stroke="url(#paint1_linear_1198_14184)" stroke-width="0.25"/>
<path d="M3 23.7313L15.8194 31L28.7709 23.7313M3 23.7313L15.8194 16.0661M3 23.7313V8.40088L15.8194 1M28.7709 23.7313L15.8194 16.0661M28.7709 23.7313V18.5771L15.8194 11.0441M15.8194 16.0661V11.0441M15.8194 1V5.75771M15.8194 1L28.7709 8.79736V13.5551M15.8194 5.75771L6.96476 10.9119M15.8194 5.75771L28.7709 13.5551M6.96476 10.9119V16.0661L15.8194 11.0441M6.96476 10.9119L11.326 13.5925L15.8194 11.0441M15.8194 11.0441L24.5419 16.1173L28.7709 13.5551" stroke="url(#paint2_linear_1198_14184)" stroke-width="0.25"/>
<defs>
<linearGradient id="paint0_linear_1198_14184" x1="9.40969" y1="1" x2="9.40969" y2="23.7313" gradientUnits="userSpaceOnUse">
<stop stop-color="#2260E8"/>
<stop offset="1" stop-color="#133682"/>
</linearGradient>
<linearGradient id="paint1_linear_1198_14184" x1="9.40969" y1="1" x2="9.40969" y2="23.7313" gradientUnits="userSpaceOnUse">
<stop stop-color="white"/>
<stop offset="1" stop-color="#2260E8"/>
</linearGradient>
<linearGradient id="paint2_linear_1198_14184" x1="15.8855" y1="1" x2="15.8855" y2="31" gradientUnits="userSpaceOnUse">
<stop stop-color="#2260E8"/>
<stop offset="1" stop-color="#133682"/>
</linearGradient>
</defs>
</svg>
