<svg width="32" height="32" viewBox="0 0 32 32" fill="none" xmlns="http://www.w3.org/2000/svg">
<path d="M15.8196 1.04816L3.04153 8.42539V23.7068L15.8196 16.0661V11.0601L6.99351 16.0661V10.9284L15.8196 5.79066V1.04816Z" fill="url(#paint0_linear_1198_14184)"/>
<path d="M6.91045 10.8806L6.95174 10.8566L15.7365 5.7429V1.19198L3.1246 8.47332V23.5603L15.7365 16.019V11.2027L6.91045 16.2087V10.8806ZM6.99352 16.0661L15.8196 11.0601V16.0661L3.04153 23.7068V8.42538L15.8196 1.04816V5.79068L6.99352 10.9283V16.0661Z" fill="url(#paint1_linear_1198_14184)"/>
<path d="M15.8411 1.01257L28.7508 8.78502L28.7709 8.79718V13.5865L28.7509 13.5987L24.5953 16.1165L28.7709 18.5452V23.7312L28.7498 23.743L15.8399 30.9886L15.8195 31L15.7991 30.9884L3 23.731V8.4014L3.02077 8.38947L15.82 1L15.8411 1.01257ZM3.12395 23.7058L15.8196 30.9046L28.6462 23.7058L15.8196 16.1144L3.12395 23.7058ZM15.8612 16.0424L28.6879 23.6339V18.5929L15.8612 11.1323V16.0424ZM3.08306 8.44934V23.6336L15.7781 16.0425V11.1314L11.3626 13.6358L11.3611 13.6366L11.3611 13.6366L6.95198 16.1374V10.9045L15.7781 5.7667V1.12006L3.08306 8.44934ZM7.07439 10.9293L11.3415 13.5522L15.8199 11.0122L24.5135 16.0689L28.6491 13.5632L15.8192 5.8389L7.07439 10.9293ZM7.03505 15.9948L11.259 13.599L7.03505 11.0027V15.9948ZM15.8612 5.76719L28.6879 13.4896V8.84407L15.8612 1.12168V5.76719Z" fill="url(#paint2_linear_1198_14184)"/>
<defs>
<linearGradient id="paint0_linear_1198_14184" x1="9.43056" y1="1.04816" x2="9.43056" y2="23.7068" gradientUnits="userSpaceOnUse">
<stop stop-color="#2260E8"/>
<stop offset="1" stop-color="#133682"/>
</linearGradient>
<linearGradient id="paint1_linear_1198_14184" x1="9.43055" y1="1.04816" x2="9.43055" y2="23.7068" gradientUnits="userSpaceOnUse">
<stop stop-color="white"/>
<stop offset="1" stop-color="#2260E8"/>
</linearGradient>
<linearGradient id="paint2_linear_1198_14184" x1="15.8855" y1="1" x2="15.8855" y2="31" gradientUnits="userSpaceOnUse">
<stop stop-color="#2260E8"/>
<stop offset="1" stop-color="#133682"/>
</linearGradient>
</defs>
</svg>
