<svg width="32" height="32" viewBox="0 0 32 32" fill="none" xmlns="http://www.w3.org/2000/svg">
<path d="M15.8194 1L3 8.40088V23.7313L15.8194 16.0661V11.0441L6.96476 16.0661V10.9119L15.8194 5.75771V1Z" fill="#2260E8"/>
<path d="M3 23.7313L15.8194 31L28.7709 23.7313M3 23.7313L15.8194 16.0661M3 23.7313V8.40088L15.8194 1M28.7709 23.7313L15.8194 16.0661M28.7709 23.7313V18.5771L15.8194 11.0441M15.8194 16.0661V11.0441M15.8194 1V5.75771M15.8194 1L28.7709 8.79736V13.5551M15.8194 5.75771L6.96476 10.9119M15.8194 5.75771L28.7709 13.5551M6.96476 10.9119V16.0661L15.8194 11.0441M6.96476 10.9119L11.326 13.5925L15.8194 11.0441M15.8194 11.0441L24.5418 16.1173L28.7709 13.5551" stroke="#D8D8D8" stroke-width="0.25"/>
</svg>
